# xmcd
#
# Track frame offsets:
#	150
#	12480
#	24072
#	36810
#	47710
#	56060
#	68085
#	80785
#	97772
#	109660
#	121060
#	129647
#
# Disc length: 1838 seconds
#
# Revision: 2
# Processed by: cddbd v1.5.2PL0 Copyright (c) Steve Scherf et al.
# Submitted via: audiograbber 1.83.01
#
DISCID=93072c0c
DTITLE=Johnny Cash - Ring Of Fire  -  Disc 1  [Goldies]
DYEAR=1999
DGENRE=Country
TTITLE0=Folsom Prison Blues
TTITLE1=These Hands
TTITLE2=Peace In The Valley
TTITLE3=Rock Island Line
TTITLE4=The Wall
TTITLE5=I Still Miss Someone
TTITLE6=Ring Of Fire
TTITLE7=Sunday Morning Coming Down
TTITLE8=Highwayman
TTITLE9=Big River
TTITLE10=I Got Stripes
TTITLE11=Get Rhythm
EXTD=YEAR: 1999
EXTT0=
EXTT1=
EXTT2=
EXTT3=
EXTT4=
EXTT5=
EXTT6=
EXTT7=
EXTT8=
EXTT9=
EXTT10=
EXTT11=
PLAYORDER=
